<svg class="svg-icon" style="width: 1em; height: 1em;vertical-align: middle;fill: currentColor;overflow: hidden;" viewBox="0 0 1024 1024" version="1.1" xmlns="http://www.w3.org/2000/svg"><path d="M512 898.56l-9.813333-4.693333C485.546667 884.906667 85.333333 679.68 85.333333 384c0-115.626667 53.76-202.666667 147.2-239.36C325.546667 108.373333 435.2 132.266667 512 203.52c76.8-71.253333 186.88-95.146667 279.466667-58.88C884.906667 181.333333 938.666667 268.373333 938.666667 384c0 295.68-400.213333 501.333333-416.853334 509.866667l-9.813333 4.693333zM322.986667 170.24c-25.6 0-51.2 4.693333-75.093334 14.08C171.52 214.186667 128 286.72 128 384c0 245.333333 323.413333 433.493333 384 466.346667 60.586667-32.853333 384-221.013333 384-466.346667 0-96.853333-43.52-169.813333-119.893333-199.68-83.2-32.426667-183.04-6.826667-248.32 64l-15.786667 17.066667-15.786667-17.066667c-46.506667-50.346667-110.08-78.08-173.226666-78.08z"  /></svg>